# xmcd
# Copyright (c) 1998 CDDB Inc.
#
# Track frame offsets:
#	150
#	24250
#	44830
#	67765
#	80992
#	96349
#	120924
#	136476
#	158331
#	176822
#	206608
#	228265
#	247885
#	267595
#	283234
#	307893
#
# Disc length: 4438 seconds
#
# Revision: 4
# Processed by: cddbd v1.5.1PL0 Copyright (c) Steve Scherf et al.
# Submitted via: AudioCatalyst 2.10full
#
DISCID=db115410
DTITLE=Phil Collins  - ...Hits
DYEAR=1900
DGENRE=
TTITLE0=Another Day In Paradise
TTITLE1=True Colors
TTITLE2=Easy Lover
TTITLE3=You Can't Hurry Love
TTITLE4=Two Hearts
TTITLE5=I Wish It Would Rain Down
TTITLE6=Againts All Odds
TTITLE7=Something Happened On The Way To Heaven
TTITLE8=Separate Lives
TTITLE9=Both Sides Of The Story
TTITLE10=One More Night
TTITLE11=Sussudio
TTITLE12=Dance Into The Light
TTITLE13=A Groovy Kind Of Love
TTITLE14=In Air Tonight
TTITLE15=Take Me Home
EXTD=
EXTT0=
EXTT1=
EXTT2=
EXTT3=
EXTT4=
EXTT5=
EXTT6=
EXTT7=
EXTT8=
EXTT9=
EXTT10=
EXTT11=
EXTT12=
EXTT13=
EXTT14=
EXTT15=
PLAYORDER=
